<?xml version="1.0" encoding="UTF-8"?>
<svg id="Layer_1" data-name="Layer 1" xmlns="http://www.w3.org/2000/svg" viewBox="0 0 1024 1024">
  <defs>
    <style>
      .cls-1 {
        fill: #378b59;
      }

      .cls-2 {
        fill: #465158;
      }

      .cls-3 {
        fill: #f5f3f0;
      }
    </style>
  </defs>
  <path class="cls-1" d="M477.51.88c9.69-.91,19.45-.64,29.16-.84,53.52-.74,107.11,7.13,158.34,22.67,40.96,12.25,80.38,29.74,116.78,52.26,67.91,42.01,126.32,99.74,168.08,168.05,43.8,71.62,69.08,154.46,73.16,238.39.25,9.13.99,18.26.96,27.4-.61,41.02-4.4,82.13-13.95,122.07-20.47,89.1-65.47,172.62-129.6,237.68-94.72,98.39-230.15,156.61-366.64,155.39-79.91.92-159.96-17.72-231.46-53.52-70.99-34.84-133.13-87.26-180.71-150.49-28.35-38.16-51.57-80.18-68.47-124.68C14.13,644.87,3.45,591.35.88,537.52c-1.05-15.87-1.23-31.81-.15-47.69.93-37.24,6.43-74.32,15.44-110.44,10.15-39.93,25.77-78.32,45.18-114.58,34.1-62.32,81.61-116.92,137.45-160.53,29.42-22.6,61.2-42.2,94.93-57.62C351.45,20.11,414.18,4.76,477.51.88ZM486.92,102.22c-19.64,1.36-39.18,4.1-58.45,8.1-25.37,5.84-50.57,12.79-74.56,23.02-27.71,10.67-53.6,25.53-78.25,42.03-17.27,11.33-32.29,25.64-47.56,39.46-7.78,7.7-16.33,14.64-23.26,23.16-9.18,11.13-19.03,21.76-27.2,33.67-12.8,19.33-24.95,39.12-35.48,59.79-10.84,22.91-20.11,46.63-26.74,71.12-17.01,61.88-18.7,127.63-6.73,190.58,8.65,45.36,25.6,89,49,128.72,22.72,34.79,49.79,66.76,80.19,95.02,15.18,14.19,32.39,25.93,49.72,37.29,54.78,35.95,118.48,57.53,183.47,64.36,51.36,5.71,103.66.7,153.37-13.29,29.38-8.75,58.29-19.76,84.85-35.27,17.58-9.74,34.23-21.06,50.27-33.16,18.41-12.19,33.4-28.59,48.92-44.1,21.78-23.51,41.72-48.82,58.6-76.12,6.73-10.77,12.01-22.35,17.47-33.8,33.83-72.77,44.41-155.74,32.64-234.98-7.05-43.19-20.11-85.58-40.41-124.38-8.98-17.17-19.65-33.36-30.22-49.56-6.35-9.73-14.01-18.46-21.49-27.3-14.45-17.27-31.07-32.55-47.94-47.38-15.76-14.04-33.33-25.84-51.11-37.12-14.36-9.16-29.33-17.29-44.86-24.24-46.23-21.03-96.37-33.55-147.09-36.1-15.71.08-31.46-.59-47.13.48Z"/>
  <path class="cls-3" d="M486.92,102.22c15.68-1.06,31.42-.39,47.13-.48,50.71,2.54,100.86,15.07,147.09,36.1,15.53,6.95,30.51,15.08,44.86,24.24,17.78,11.28,35.35,23.08,51.11,37.12,16.88,14.83,33.49,30.11,47.94,47.38,7.48,8.84,15.14,17.56,21.49,27.3,10.57,16.2,21.24,32.39,30.22,49.56,20.3,38.81,33.36,81.2,40.41,124.38,11.77,79.24,1.19,162.21-32.64,234.98-5.46,11.45-10.74,23.03-17.47,33.8-16.88,27.3-36.82,52.61-58.6,76.12-15.52,15.51-30.51,31.9-48.92,44.1-16.04,12.1-32.7,23.42-50.27,33.16-26.56,15.51-55.47,26.52-84.85,35.27-49.7,13.99-102.01,19-153.37,13.29-64.99-6.83-128.69-28.41-183.47-64.36-17.33-11.36-34.54-23.1-49.72-37.29-30.4-28.26-57.47-60.23-80.19-95.02-23.41-39.71-40.35-83.36-49-128.72-11.96-62.95-10.28-128.71,6.73-190.58,6.62-24.49,15.9-48.2,26.74-71.12,10.53-20.67,22.68-40.45,35.48-59.79,8.17-11.92,18.02-22.54,27.2-33.67,6.93-8.53,15.49-15.46,23.26-23.16,15.27-13.83,30.29-28.13,47.56-39.46,24.64-16.5,50.54-31.36,78.25-42.03,23.99-10.23,49.19-17.18,74.56-23.02,19.27-4,38.81-6.73,58.45-8.1ZM281.72,213.89c-2.16,3.58-1.97,7.94-2.25,11.96-3.08,49.29-6.84,98.54-9.94,147.84-1.01,13.5-2.03,27.45,1.84,40.61,4.26,16,13.29,30.33,24.44,42.38,9.74,10.89,19.96,21.34,30.4,31.55,2.35,2.47,5.22,5.06,5.48,8.7.98,13.96-1.13,27.85-1.06,41.79-4.86,77.65-9.68,155.31-14.53,232.96-.77,9.55-2.14,19.49,1.15,28.74,6.17,20.14,28.35,34.33,49.14,29.74,20.3-3.86,36.33-23.45,35.31-44.32-1.46-22.65-2.72-45.31-4.26-67.95-.3-15.58-2.21-31.08-2.58-46.65-1.72-29.97-3.68-59.93-5.27-89.9-.33-1.96-.26-4.23-1.7-5.73-11.17-11.18-23.37-22.01-30.46-36.42-5.86-12.72-8.34-27.12-6.29-41.03,2.65-16.61,14.39-31.12,29.51-38.09,14.99-7.3,32.28-7.49,48.42-4.79,13.9-14.71,23.88-33.43,26.81-53.61,2.14-12.02-.07-24.17-.59-36.22-3.88-49.25-7.11-98.54-10.76-147.81-.87-9.84-13.9-14.3-21.46-8.92-4.46,3.47-4.58,9.59-4.57,14.76-.33,47.77-.07,95.55-.17,143.32.32,5.78-4.25,11.79-10.4,11.12-6.11.62-11.17-5.13-10.66-11.07-.11-50.2.02-100.41-.06-150.61-.48-10.32-15.4-12.79-21.72-6.21-3.73,3.41-2.85,8.9-2.93,13.44.18,46.96-.02,93.92.13,140.9-.08,3.38.02,7.24-2.47,9.86-4.04,5.09-13.2,4.91-16.69-.72-2.51-3.71-2.51-8.39-2.57-12.7.1-48.59.01-97.17.07-145.77-.12-2.58,0-5.68-2.28-7.42-3.32-2.73-8.02-2.99-12.11-2.4-4.21.59-8.59,3.99-8.36,8.62-.08,49.39-.01,98.78-.04,148.18.5,5.64-1.81,11.76-7.1,14.35-6.04,3.5-14.94-1.05-14.42-8.41-.17-50.16.04-100.35-.05-150.52.3-5.65-3.72-11.27-9.47-11.89-6.09-.01-12.23,3.13-15.52,8.32ZM699.13,217.22c-14.7,13.13-28.4,27.44-40.47,43.05-24.31,31.44-39.82,70.46-40.46,110.47,10.4-4.12,21.43-8.86,32.85-6.73,19.58,3.56,35.35,18.93,42.78,37,5.73,14.08,8.86,30.29,3.64,45.03-4.9,13.99-15.74,24.57-25.26,35.49-7.79,8.14-15.15,16.68-23.1,24.67-1.47,1.79-4.48,3.98-2.38,6.46,9.51,14.38,19.39,28.84,25.26,45.21,2,5.58,1.11,11.62.67,17.4-4.26,67.39-8.22,134.81-12.5,202.21-.06,7.7-.84,15.71,1.96,23.09,5.78,17.18,22.75,29.86,40.82,30.4,20.36-.39,39.44-16.59,42.54-36.92,1-9.47-.3-18.97-.81-28.43-.26-15.19-2.2-30.29-2.63-45.48-3.28-53.3-6.36-106.63-9.37-159.94-.04-110.68,0-221.35-.01-332.03.04-8.98-7.37-17.87-16.62-17.95-6.43-.63-12.3,2.85-16.91,7.01ZM635.54,399.52c-5.41,1.31-9.95,4.8-13.81,8.7-45.53,45.84-90.43,92.32-136.22,137.91-2.03,2.5-5.83,2.87-7.86.14-16.01-15.76-31.46-32.08-47.4-47.91-6.29-5.99-14.56-10.97-23.56-9.9-11.08.51-20.23,10.08-21.96,20.81-1.59,8.14.84,16.63,5.48,23.38,7.78,11.43,17.4,21.45,27.05,31.3,14.21,14.78,29.04,28.96,43.33,43.68,5.08,5.25,11.24,10.16,18.76,10.94,7.1,1.09,14.59-1.24,19.54-6.52,35.57-36.32,71.61-72.18,107.11-108.57,13.63-14.2,27.81-27.85,41.26-42.21,7.01-7.95,14.24-16.35,17.42-26.68,3.58-12.04-2.09-25.84-12.48-32.57-4.85-3.26-11.1-3.77-16.67-2.51Z"/>
  <path class="cls-2" d="M281.72,213.89c3.29-5.19,9.43-8.33,15.52-8.32,5.74.62,9.76,6.24,9.47,11.89.08,50.17-.12,100.36.05,150.52-.52,7.36,8.37,11.9,14.42,8.41,5.29-2.59,7.6-8.72,7.1-14.35.02-49.4-.05-98.8.04-148.18-.23-4.63,4.15-8.04,8.36-8.62,4.09-.59,8.79-.33,12.11,2.4,2.28,1.73,2.16,4.84,2.28,7.42-.06,48.6.02,97.18-.07,145.77.06,4.31.06,8.99,2.57,12.7,3.48,5.62,12.64,5.8,16.69.72,2.5-2.63,2.39-6.48,2.47-9.86-.15-46.97.05-93.94-.13-140.9.07-4.55-.81-10.03,2.93-13.44,6.32-6.58,21.24-4.11,21.72,6.21.08,50.2-.05,100.41.06,150.61-.51,5.93,4.54,11.69,10.66,11.07,6.15.67,10.72-5.34,10.4-11.12.1-47.77-.17-95.55.17-143.32-.01-5.17.11-11.28,4.57-14.76,7.55-5.39,20.59-.92,21.46,8.92,3.65,49.27,6.89,98.56,10.76,147.81.52,12.05,2.74,24.19.59,36.22-2.93,20.18-12.9,38.9-26.81,53.61-16.14-2.7-33.43-2.51-48.42,4.79-15.12,6.97-26.86,21.48-29.51,38.09-2.05,13.91.43,28.31,6.29,41.03,7.09,14.41,19.29,25.24,30.46,36.42,1.44,1.5,1.37,3.77,1.7,5.73,1.59,29.97,3.54,59.93,5.27,89.9.37,15.57,2.28,31.07,2.58,46.65,1.53,22.64,2.79,45.3,4.26,67.95,1.02,20.87-15.01,40.47-35.31,44.32-20.79,4.59-42.97-9.6-49.14-29.74-3.29-9.25-1.93-19.19-1.15-28.74,4.85-77.65,9.67-155.31,14.53-232.96-.07-13.95,2.03-27.83,1.06-41.79-.26-3.64-3.13-6.23-5.48-8.7-10.44-10.21-20.66-20.66-30.4-31.55-11.16-12.05-20.18-26.38-24.44-42.38-3.88-13.16-2.85-27.1-1.84-40.61,3.1-49.29,6.86-98.54,9.94-147.84.27-4.02.08-8.38,2.25-11.96Z"/>
  <path class="cls-2" d="M699.13,217.22c4.61-4.16,10.48-7.64,16.91-7.01,9.24.07,16.65,8.97,16.62,17.95.01,110.68-.02,221.35.01,332.03,3.01,53.31,6.09,106.64,9.37,159.94.43,15.19,2.37,30.29,2.63,45.48.51,9.46,1.81,18.96.81,28.43-3.1,20.33-22.18,36.53-42.54,36.92-18.07-.54-35.04-13.22-40.82-30.4-2.81-7.38-2.02-15.39-1.96-23.09,4.28-67.4,8.24-134.82,12.5-202.21.44-5.78,1.33-11.82-.67-17.4-5.88-16.37-15.75-30.83-25.26-45.21-2.11-2.48.9-4.67,2.38-6.46,7.94-7.99,15.31-16.53,23.1-24.67,9.53-10.91,20.36-21.49,25.26-35.49,5.22-14.73,2.09-30.95-3.64-45.03-7.43-18.08-23.2-33.45-42.78-37-11.42-2.13-22.46,2.61-32.85,6.73.64-40.01,16.15-79.03,40.46-110.47,12.07-15.61,25.77-29.91,40.47-43.05Z"/>
  <path class="cls-1" d="M635.54,399.52c5.58-1.27,11.82-.75,16.67,2.51,10.38,6.73,16.06,20.54,12.48,32.57-3.19,10.33-10.42,18.72-17.42,26.68-13.45,14.36-27.63,28.01-41.26,42.21-35.5,36.39-71.54,72.25-107.11,108.57-4.95,5.28-12.44,7.61-19.54,6.52-7.52-.78-13.68-5.68-18.76-10.94-14.28-14.72-29.12-28.9-43.33-43.68-9.65-9.85-19.27-19.87-27.05-31.3-4.64-6.75-7.08-15.24-5.48-23.38,1.72-10.73,10.87-20.3,21.96-20.81,9-1.07,17.27,3.9,23.56,9.9,15.94,15.82,31.39,32.14,47.4,47.91,2.03,2.72,5.83,2.35,7.86-.14,45.79-45.59,90.69-92.07,136.22-137.91,3.85-3.9,8.4-7.39,13.81-8.7Z"/>
</svg>